<svg width="167" height="19" viewBox="0 0 167 19" fill="none" xmlns="http://www.w3.org/2000/svg">
<path d="M0.0880001 18V0.959999H2.896V15.312H10.696V18H0.0880001ZM18.0432 18.24C16.4112 18.24 15.0352 17.632 13.9152 16.416C12.8112 15.2 12.2592 13.728 12.2592 12C12.2592 10.272 12.8112 8.8 13.9152 7.584C15.0352 6.368 16.4112 5.76 18.0432 5.76C18.8592 5.76 19.6112 5.944 20.2992 6.312C20.9872 6.664 21.5152 7.096 21.8832 7.608V6H24.5232V18H21.8832V16.392C21.5152 16.904 20.9872 17.344 20.2992 17.712C19.6112 18.064 18.8592 18.24 18.0432 18.24ZM15.9552 14.736C16.6272 15.472 17.4832 15.84 18.5232 15.84C19.5632 15.84 20.4192 15.472 21.0912 14.736C21.7632 14 22.0992 13.088 22.0992 12C22.0992 10.912 21.7632 10 21.0912 9.264C20.4192 8.528 19.5632 8.16 18.5232 8.16C17.4832 8.16 16.6272 8.528 15.9552 9.264C15.2832 10 14.9472 10.912 14.9472 12C14.9472 13.088 15.2832 14 15.9552 14.736ZM32.8757 18.24C31.4997 18.24 30.4117 17.784 29.6117 16.872C28.8117 15.944 28.4117 14.712 28.4117 13.176V6H31.0517V12.744C31.0517 13.704 31.2597 14.464 31.6757 15.024C32.0917 15.568 32.6837 15.84 33.4517 15.84C34.3477 15.84 35.0597 15.504 35.5877 14.832C36.1157 14.144 36.3797 13.168 36.3797 11.904V6H39.0197V18H36.3797V16.368C35.6757 17.616 34.5077 18.24 32.8757 18.24ZM43.0519 18V6H45.6919V8.136C45.9159 7.464 46.3239 6.92 46.9159 6.504C47.5239 6.088 48.1719 5.88 48.8599 5.88C49.2759 5.88 49.6199 5.912 49.8919 5.976V8.688C49.5079 8.544 49.0679 8.472 48.5719 8.472C47.7719 8.472 47.0919 8.8 46.5319 9.456C45.9719 10.096 45.6919 10.992 45.6919 12.144V18H43.0519ZM57.1707 18.24C55.5387 18.24 54.1627 17.632 53.0427 16.416C51.9387 15.2 51.3867 13.728 51.3867 12C51.3867 10.272 51.9387 8.8 53.0427 7.584C54.1627 6.368 55.5387 5.76 57.1707 5.76C57.9867 5.76 58.7387 5.944 59.4267 6.312C60.1147 6.664 60.6427 7.096 61.0107 7.608V6H63.6507V18H61.0107V16.392C60.6427 16.904 60.1147 17.344 59.4267 17.712C58.7387 18.064 57.9867 18.24 57.1707 18.24ZM55.0827 14.736C55.7547 15.472 56.6107 15.84 57.6507 15.84C58.6907 15.84 59.5467 15.472 60.2187 14.736C60.8907 14 61.2267 13.088 61.2267 12C61.2267 10.912 60.8907 10 60.2187 9.264C59.5467 8.528 58.6907 8.16 57.6507 8.16C56.6107 8.16 55.7547 8.528 55.0827 9.264C54.4107 10 54.0747 10.912 54.0747 12C54.0747 13.088 54.4107 14 55.0827 14.736ZM71.2593 4.056L68.6673 8.16H67.0353L68.7153 4.656C68.3793 4.496 68.0913 4.248 67.8513 3.912C67.6273 3.56 67.5153 3.176 67.5153 2.76C67.5153 2.184 67.7153 1.696 68.1153 1.296C68.5313 0.879999 69.0193 0.671999 69.5793 0.671999C70.1553 0.671999 70.6433 0.879999 71.0433 1.296C71.4593 1.696 71.6673 2.184 71.6673 2.76C71.6673 3.208 71.5313 3.64 71.2593 4.056ZM78.0831 18.24C76.6591 18.24 75.4591 17.888 74.4831 17.184C73.5231 16.48 73.0111 15.536 72.9471 14.352H75.6831C75.8751 15.536 76.6991 16.128 78.1551 16.128C78.7471 16.128 79.2191 16.024 79.5711 15.816C79.9231 15.592 80.0991 15.272 80.0991 14.856C80.0991 14.44 79.9631 14.112 79.6911 13.872C79.4191 13.632 78.9631 13.432 78.3231 13.272L76.3551 12.744C74.3071 12.2 73.2831 10.992 73.2831 9.12C73.2831 8.112 73.6911 7.304 74.5071 6.696C75.3231 6.072 76.4031 5.76 77.7471 5.76C79.0431 5.76 80.1071 6.088 80.9391 6.744C81.7711 7.4 82.2351 8.272 82.3311 9.36H79.6911C79.4351 8.368 78.7791 7.872 77.7231 7.872C77.1951 7.872 76.7711 7.984 76.4511 8.208C76.1311 8.416 75.9711 8.712 75.9711 9.096C75.9711 9.784 76.5071 10.264 77.5791 10.536L79.5951 11.064C81.7231 11.608 82.7871 12.816 82.7871 14.688C82.7871 15.824 82.3471 16.704 81.4671 17.328C80.6031 17.936 79.4751 18.24 78.0831 18.24ZM100.181 18.288C97.6371 18.288 95.5171 17.448 93.8211 15.768C92.1411 14.072 91.3011 11.976 91.3011 9.48C91.3011 6.984 92.1411 4.896 93.8211 3.216C95.5171 1.52 97.6371 0.671999 100.181 0.671999C102.197 0.671999 103.957 1.248 105.461 2.4C106.981 3.536 107.957 4.96 108.389 6.672H105.365C104.997 5.696 104.341 4.904 103.397 4.296C102.453 3.688 101.381 3.384 100.181 3.384C98.4211 3.384 96.9731 3.968 95.8371 5.136C94.7011 6.304 94.1331 7.752 94.1331 9.48C94.1331 11.208 94.7011 12.656 95.8371 13.824C96.9731 14.992 98.4211 15.576 100.181 15.576C101.381 15.576 102.453 15.272 103.397 14.664C104.341 14.056 104.997 13.264 105.365 12.288H108.389C107.957 14 106.981 15.432 105.461 16.584C103.957 17.72 102.197 18.288 100.181 18.288ZM111.393 18V-1.43051e-06H114.033V18H111.393ZM127.948 16.44C126.748 17.64 125.26 18.24 123.484 18.24C121.708 18.24 120.212 17.64 118.996 16.44C117.796 15.224 117.196 13.744 117.196 12C117.196 10.256 117.796 8.784 118.996 7.584C120.212 6.368 121.708 5.76 123.484 5.76C125.26 5.76 126.748 6.368 127.948 7.584C129.164 8.784 129.772 10.256 129.772 12C129.772 13.744 129.164 15.224 127.948 16.44ZM123.484 15.792C124.524 15.792 125.38 15.432 126.052 14.712C126.74 13.976 127.084 13.072 127.084 12C127.084 10.928 126.74 10.032 126.052 9.312C125.38 8.576 124.524 8.208 123.484 8.208C122.428 8.208 121.556 8.576 120.868 9.312C120.196 10.032 119.86 10.928 119.86 12C119.86 13.072 120.196 13.976 120.868 14.712C121.556 15.432 122.428 15.792 123.484 15.792ZM137.132 18.24C135.708 18.24 134.508 17.888 133.532 17.184C132.572 16.48 132.06 15.536 131.996 14.352H134.732C134.924 15.536 135.748 16.128 137.204 16.128C137.796 16.128 138.268 16.024 138.62 15.816C138.972 15.592 139.148 15.272 139.148 14.856C139.148 14.44 139.012 14.112 138.74 13.872C138.468 13.632 138.012 13.432 137.372 13.272L135.404 12.744C133.356 12.2 132.332 10.992 132.332 9.12C132.332 8.112 132.74 7.304 133.556 6.696C134.372 6.072 135.452 5.76 136.796 5.76C138.092 5.76 139.156 6.088 139.988 6.744C140.82 7.4 141.284 8.272 141.38 9.36H138.74C138.484 8.368 137.828 7.872 136.772 7.872C136.244 7.872 135.82 7.984 135.5 8.208C135.18 8.416 135.02 8.712 135.02 9.096C135.02 9.784 135.556 10.264 136.628 10.536L138.644 11.064C140.772 11.608 141.836 12.816 141.836 14.688C141.836 15.824 141.396 16.704 140.516 17.328C139.652 17.936 138.524 18.24 137.132 18.24ZM150.293 18.24C148.501 18.24 147.029 17.656 145.877 16.488C144.725 15.304 144.149 13.808 144.149 12C144.149 10.192 144.717 8.704 145.853 7.536C146.989 6.352 148.477 5.76 150.317 5.76C152.173 5.76 153.669 6.408 154.805 7.704C155.941 8.984 156.445 10.632 156.317 12.648H146.765C146.797 13.576 147.149 14.352 147.821 14.976C148.493 15.6 149.349 15.912 150.389 15.912C151.861 15.912 152.869 15.352 153.413 14.232H156.173C155.805 15.4 155.101 16.36 154.061 17.112C153.021 17.864 151.765 18.24 150.293 18.24ZM150.245 7.968C149.381 7.968 148.637 8.216 148.013 8.712C147.405 9.192 147.013 9.88 146.837 10.776H153.485C153.293 9.848 152.901 9.152 152.309 8.688C151.717 8.208 151.029 7.968 150.245 7.968ZM164.505 18.12C163.289 18.12 162.297 17.784 161.529 17.112C160.777 16.424 160.401 15.432 160.401 14.136V8.352H157.905V6H160.401V2.664H163.041V6H166.473V8.352H163.041V13.704C163.041 14.44 163.201 14.968 163.521 15.288C163.841 15.592 164.353 15.744 165.057 15.744C165.633 15.744 166.105 15.664 166.473 15.504V17.856C165.897 18.032 165.241 18.12 164.505 18.12Z" fill="#374151"/>
</svg>
